<svg width="117" height="43" viewBox="0 0 117 43" fill="none" xmlns="http://www.w3.org/2000/svg">
<path d="M5.01599 38L9.19199 11.6H16.152L15.384 16.544C16.056 14.848 17.112 13.52 18.552 12.56C19.992 11.6 21.688 11.12 23.64 11.12C26.296 11.12 28.232 12.016 29.448 13.808C30.664 15.6 31.016 18.064 30.504 21.2L30.12 23.84H22.92L23.256 21.68C23.48 20.304 23.272 19.248 22.632 18.512C22.024 17.744 21.048 17.36 19.704 17.36C18.36 17.36 17.256 17.792 16.392 18.656C15.528 19.488 14.968 20.688 14.712 22.256L12.216 38H5.01599Z" fill="#76E1FE"/>
<path d="M42.1012 38.48C39.7972 38.48 37.8452 38.032 36.2452 37.136C34.6452 36.24 33.4772 34.992 32.7412 33.392C32.0372 31.792 31.8612 29.968 32.2132 27.92L33.2212 21.68C33.7972 18.32 35.2372 15.728 37.5412 13.904C39.8452 12.048 42.8212 11.12 46.4692 11.12C48.7412 11.12 50.6772 11.504 52.2772 12.272C53.9092 13.008 55.1092 14.048 55.8772 15.392C56.6452 16.736 56.8852 18.304 56.5972 20.096C56.2772 22.208 55.3812 23.856 53.9092 25.04C52.4692 26.192 50.6132 26.768 48.3412 26.768H39.3172L39.0772 27.92C38.7572 29.584 38.9332 30.8 39.6052 31.568C40.3092 32.336 41.4452 32.72 43.0132 32.72C44.0372 32.72 44.9492 32.56 45.7492 32.24C46.5812 31.92 47.1252 31.44 47.3812 30.8H54.4372C53.5412 33.232 52.0052 35.12 49.8292 36.464C47.6852 37.808 45.1092 38.48 42.1012 38.48ZM39.9892 22.304L47.3332 22.208C47.8772 22.208 48.3252 22.064 48.6772 21.776C49.0292 21.488 49.2692 20.96 49.3972 20.192C49.5892 19.072 49.3332 18.176 48.6292 17.504C47.9252 16.8 46.9172 16.448 45.6052 16.448C44.0372 16.448 42.7892 16.912 41.8612 17.84C40.9332 18.768 40.3412 20.048 40.0852 21.68L39.9892 22.304Z" fill="#76E1FE"/>
<path d="M67.8105 38.48C64.5465 38.48 62.0345 37.728 60.2745 36.224C58.5145 34.72 57.8265 32.752 58.2105 30.32H65.2665C65.1385 31.216 65.3625 31.888 65.9385 32.336C66.5465 32.784 67.4585 33.008 68.6745 33.008H70.7865C72.0665 33.008 73.1065 32.784 73.9065 32.336C74.7385 31.856 75.2185 31.216 75.3465 30.416C75.4745 29.616 75.2665 29.04 74.7225 28.688C74.2105 28.304 73.3785 28.048 72.2265 27.92L66.3225 27.2C64.0505 26.912 62.4025 26.048 61.3785 24.608C60.3545 23.136 60.0025 21.312 60.3225 19.136C61.1865 13.792 65.0425 11.12 71.8905 11.12H74.1465C76.2265 11.12 78.0025 11.456 79.4745 12.128C80.9785 12.8 82.0825 13.728 82.7865 14.912C83.5225 16.064 83.7625 17.392 83.5065 18.896H76.4505C76.5785 18.128 76.3545 17.536 75.7785 17.12C75.2345 16.704 74.4025 16.496 73.2825 16.496H71.0265C69.9065 16.496 69.0265 16.704 68.3865 17.12C67.7465 17.536 67.3625 18.112 67.2345 18.848C67.1065 19.584 67.2985 20.08 67.8105 20.336C68.3545 20.592 69.1225 20.784 70.1145 20.912L75.7785 21.632C78.3385 21.952 80.1465 22.864 81.2025 24.368C82.2905 25.872 82.6265 27.856 82.2105 30.32C81.3465 35.76 77.2505 38.48 69.9225 38.48H67.8105Z" fill="#76E1FE"/>
<path d="M98.5117 38C95.8237 38 93.8397 37.232 92.5597 35.696C91.2797 34.16 90.8477 32.048 91.2637 29.36L93.0397 18.08H85.9357L86.9437 11.6H94.0477L95.2477 4.16H102.448L101.248 11.6H111.568L110.56 18.08H100.24L98.4637 29.12C98.3677 29.824 98.4637 30.4 98.7517 30.848C99.0397 31.296 99.5357 31.52 100.24 31.52H108.16L107.152 38H98.5117Z" fill="#76E1FE"/>
<path fill-rule="evenodd" clip-rule="evenodd" d="M0.333557 42L5.77501 7.60001H19.9269C21.1176 7.27491 22.3616 7.12001 23.64 7.12001C27.2805 7.12001 30.6244 8.4178 32.7579 11.562C32.9482 11.8424 33.1229 12.1288 33.283 12.4208C33.8178 11.835 34.4047 11.2865 35.0452 10.7783C38.2114 8.2335 42.1333 7.12001 46.4693 7.12001C49.161 7.12001 51.7061 7.57074 53.9649 8.64521C55.9067 9.5286 57.5732 10.8073 58.7919 12.5308C59.549 11.5103 60.4765 10.6038 61.5843 9.83622C64.4244 7.86817 68.1095 7.87999 72 7.5H73H74.1465C76.4505 7.60001 79 7.60001 81.1251 7.60001C83.5179 7.60001 83.5179 7.60001 83.5179 7.60001H90.6412L91.8412 0.160004H107.145L105.945 7.60001H116.238L113.986 22.08H103.648L102.773 27.52H112.83L110.578 42H98.5118C95.0705 42 91.7667 40.9925 89.4869 38.2567C87.2337 35.553 86.7855 32.1429 87.3108 28.7482L87.3124 28.7379L88.2322 22.896H85.0073C86.4119 25.3437 86.6272 28.1687 86.1579 30.9669C85.5706 34.6361 83.7952 37.719 80.7033 39.7722C77.7513 41.7325 74.0108 42.48 69.9225 42.48H67.8105C63.9802 42.48 60.408 41.5996 57.6759 39.2649C56.7993 38.5158 56.0868 37.6825 55.5356 36.7819C54.5282 37.9723 53.3282 39.0028 51.943 39.8599C49.0532 41.6682 45.7128 42.48 42.1013 42.48C39.2855 42.48 36.6224 41.9317 34.2909 40.626C31.9853 39.3349 30.2121 37.4653 29.1073 35.0636L29.0934 35.0334L29.08 35.003C28.0843 32.74 27.8452 30.3087 28.1792 27.84H17.8767L18.6598 22.9005L19 22L19.2415 21.4643C19.2349 21.4703 19.2489 21.4568 19.2415 21.4643L19 22C18.9756 22.0646 19 22 18.6611 22.8925C18.6606 22.8952 18.6602 22.8979 18.6598 22.9005L15.6318 42H0.333557ZM14.712 22.256C14.968 20.688 15.528 19.488 16.392 18.656C16.825 18.223 17.3183 17.8985 17.8718 17.6825C17.9381 17.6566 18.0053 17.6323 18.0733 17.6096C18.4867 17.4713 18.9321 17.3905 19.4094 17.3671C19.5063 17.3624 19.6045 17.36 19.704 17.36C21.048 17.36 22.024 17.744 22.632 18.512C22.9488 18.8763 23.1597 19.3189 23.2648 19.84C23.3721 20.3717 23.3691 20.985 23.256 21.68L22.92 23.84H30.12L30.504 21.2C30.7858 19.4741 30.8059 17.9517 30.5643 16.6329C30.3669 15.5554 29.9948 14.6138 29.448 13.808C28.232 12.016 26.296 11.12 23.64 11.12C22.3806 11.12 21.2277 11.3198 20.1814 11.7195C19.8931 11.8296 19.6129 11.9549 19.3408 12.0953C19.0698 12.2352 18.8069 12.3901 18.552 12.56C18.0496 12.8949 17.594 13.2747 17.1851 13.6992C16.7991 14.0999 16.4547 14.5405 16.152 15.0211C16.0343 15.208 15.9228 15.401 15.8177 15.6C15.6587 15.9009 15.5141 16.2155 15.384 16.544L16.152 11.6H9.19199L5.01599 38H12.216L14.712 22.256ZM33.2356 21.5973C33.2329 21.6131 33.2301 21.6288 33.2274 21.6446C33.2253 21.6564 33.2233 21.6682 33.2212 21.68L32.2132 27.92C31.8612 29.968 32.0372 31.792 32.7412 33.392C33.4772 34.992 34.6452 36.24 36.2452 37.136C37.8452 38.032 39.7972 38.48 42.1012 38.48C45.1092 38.48 47.6852 37.808 49.8292 36.464C50.613 35.9799 51.3138 35.4252 51.9315 34.8C52.8346 33.8858 53.5603 32.8208 54.1085 31.6048C54.2263 31.3435 54.3358 31.0752 54.4372 30.8H47.3812C47.1252 31.44 46.5812 31.92 45.7492 32.24C44.9492 32.56 44.0372 32.72 43.0132 32.72C41.4452 32.72 40.3092 32.336 39.6052 31.568C38.9332 30.8 38.7572 29.584 39.0772 27.92L39.3172 26.768H48.3412C50.6132 26.768 52.4692 26.192 53.9092 25.04C55.0108 24.1539 55.7899 23.008 56.2463 21.6022C56.3997 21.1295 56.5167 20.6275 56.5972 20.096C56.6801 19.5806 56.7193 19.0838 56.7147 18.6054C56.7146 18.5878 56.7143 18.5702 56.7141 18.5526C56.7074 18.1437 56.6687 17.7484 56.5979 17.3667C56.4671 16.6621 56.2269 16.0038 55.8772 15.392C55.1092 14.048 53.9092 13.008 52.2772 12.272C50.6772 11.504 48.7412 11.12 46.4692 11.12C42.8212 11.12 39.8452 12.048 37.5412 13.904C36.361 14.8383 35.4076 15.9742 34.6808 17.3116C34.0004 18.5636 33.5187 19.9921 33.2356 21.5973ZM60.2082 20.6431C60.2083 20.6542 60.2083 20.6653 60.2084 20.6764C60.2106 21.1094 60.2442 21.526 60.3092 21.9262C60.4711 22.922 60.8275 23.816 61.3785 24.608C61.8842 25.3192 62.5421 25.8898 63.3522 26.32C63.9165 26.6197 64.5546 26.8511 65.2665 27.0145C65.6021 27.0915 65.9541 27.1533 66.3225 27.2L72.2265 27.92C73.3785 28.048 74.2105 28.304 74.7225 28.688C75.2665 29.04 75.4745 29.616 75.3465 30.416C75.2185 31.216 74.7385 31.856 73.9065 32.336C73.1065 32.784 72.0665 33.008 70.7865 33.008H68.6745C67.4585 33.008 66.5465 32.784 65.9385 32.336C65.5719 32.0509 65.348 31.6751 65.2665 31.2086C65.2594 31.1681 65.2534 31.1269 65.2485 31.085C65.221 30.8513 65.227 30.5963 65.2665 30.32H58.2105C58.1084 30.9665 58.0821 31.5802 58.1315 32.1611C58.1356 32.209 58.1402 32.2568 58.1453 32.3043C58.1617 32.4568 58.1835 32.607 58.2105 32.7549C58.3118 33.3089 58.4878 33.8306 58.7384 34.32C59.0973 35.0209 59.6093 35.6556 60.2745 36.224C62.0345 37.728 64.5465 38.48 67.8105 38.48H69.9225C77.2505 38.48 81.3465 35.76 82.2105 30.32C82.6265 27.856 82.2905 25.872 81.2025 24.368C80.7966 23.7899 80.2795 23.2992 79.6514 22.896C78.7922 22.3446 77.7253 21.9568 76.4505 21.7326C76.2326 21.6943 76.0086 21.6608 75.7785 21.632L70.1145 20.912C69.1225 20.784 68.3545 20.592 67.8105 20.336C67.2985 20.08 67.1065 19.584 67.2345 18.848C67.3625 18.112 67.7465 17.536 68.3865 17.12C69.0265 16.704 69.9065 16.496 71.0265 16.496H73.2825C74.4025 16.496 75.2345 16.704 75.7785 17.12C75.9949 17.2763 76.1616 17.4574 76.2787 17.6634C76.2798 17.6655 76.281 17.6676 76.2822 17.6697C76.3615 17.8108 76.4176 17.9636 76.4505 18.128C76.4971 18.3607 76.497 18.6167 76.4505 18.896H83.5065C83.5755 18.4904 83.6085 18.0975 83.6054 17.7175C83.6026 17.3703 83.5696 17.0337 83.5065 16.7079C83.3826 16.068 83.1426 15.4694 82.7865 14.912C82.7833 14.9067 82.7802 14.9013 82.777 14.896C82.6783 14.7312 82.5718 14.5713 82.4575 14.4165C81.7563 13.4661 80.7619 12.7032 79.4745 12.128C78.0025 11.456 76.2265 11.12 74.1465 11.12H71.8905C65.7205 11.12 61.9794 13.2891 60.6671 17.6272C60.5229 18.104 60.408 18.6069 60.3225 19.136C60.2456 19.6587 60.2076 20.1611 60.2082 20.6431ZM85.9357 18.08H93.0397L91.2637 29.36C90.8477 32.048 91.2797 34.16 92.5597 35.696C93.8397 37.232 95.8237 38 98.5117 38H107.152L108.16 31.52H100.24C99.5357 31.52 99.0397 31.296 98.7517 30.848C98.4637 30.4 98.3677 29.824 98.4637 29.12L100.24 18.08H110.56L111.568 11.6H101.248L102.448 4.16H95.2477L94.0477 11.6H86.9437L85.9357 18.08ZM70.235 19.9639L68.9698 18.0174ZM49.3972 20.192C49.5892 19.072 49.3332 18.176 48.6292 17.504C47.9252 16.8 46.9172 16.448 45.6052 16.448C44.0372 16.448 42.7892 16.912 41.8612 17.84C41.7211 17.9801 41.5887 18.1282 41.4639 18.2844C40.7622 19.1625 40.3026 20.2944 40.0852 21.68L39.9892 22.304L47.3332 22.208C47.8772 22.208 48.3252 22.064 48.6772 21.776C49.0292 21.488 49.2692 20.96 49.3972 20.192Z" fill="#FFFCFB"/>
</svg>
