<svg width="107" height="35" viewBox="0 0 107 35" fill="none" xmlns="http://www.w3.org/2000/svg">
<path d="M0 33.84L4.176 7.44H11.136L10.368 12.384C11.04 10.688 12.096 9.36 13.536 8.4C14.976 7.44 16.672 6.96 18.624 6.96C21.28 6.96 23.216 7.856 24.432 9.648C25.648 11.44 26 13.904 25.488 17.04L25.104 19.68H17.904L18.24 17.52C18.464 16.144 18.256 15.088 17.616 14.352C17.008 13.584 16.032 13.2 14.688 13.2C13.344 13.2 12.24 13.632 11.376 14.496C10.512 15.328 9.952 16.528 9.696 18.096L7.2 33.84H0Z" fill="#76E1FE"/>
<path d="M37.0853 34.32C34.7813 34.32 32.8293 33.872 31.2292 32.976C29.6293 32.08 28.4613 30.832 27.7253 29.232C27.0213 27.632 26.8453 25.808 27.1973 23.76L28.2052 17.52C28.7812 14.16 30.2212 11.568 32.5252 9.744C34.8292 7.888 37.8053 6.96 41.4533 6.96C43.7253 6.96 45.6613 7.344 47.2612 8.112C48.8932 8.848 50.0933 9.888 50.8613 11.232C51.6293 12.576 51.8693 14.144 51.5813 15.936C51.2613 18.048 50.3653 19.696 48.8933 20.88C47.4533 22.032 45.5973 22.608 43.3253 22.608H34.3013L34.0612 23.76C33.7412 25.424 33.9172 26.64 34.5892 27.408C35.2932 28.176 36.4292 28.56 37.9972 28.56C39.0212 28.56 39.9332 28.4 40.7332 28.08C41.5652 27.76 42.1093 27.28 42.3652 26.64H49.4212C48.5252 29.072 46.9893 30.96 44.8133 32.304C42.6693 33.648 40.0933 34.32 37.0853 34.32ZM34.9733 18.144L42.3172 18.048C42.8612 18.048 43.3093 17.904 43.6613 17.616C44.0133 17.328 44.2532 16.8 44.3812 16.032C44.5732 14.912 44.3173 14.016 43.6133 13.344C42.9093 12.64 41.9012 12.288 40.5892 12.288C39.0212 12.288 37.7732 12.752 36.8452 13.68C35.9172 14.608 35.3253 15.888 35.0693 17.52L34.9733 18.144Z" fill="#76E1FE"/>
<path d="M62.7945 34.32C59.5305 34.32 57.0185 33.568 55.2585 32.064C53.4985 30.56 52.8105 28.592 53.1945 26.16H60.2505C60.1225 27.056 60.3465 27.728 60.9225 28.176C61.5305 28.624 62.4425 28.848 63.6585 28.848H65.7705C67.0505 28.848 68.0905 28.624 68.8905 28.176C69.7225 27.696 70.2025 27.056 70.3305 26.256C70.4585 25.456 70.2505 24.88 69.7065 24.528C69.1945 24.144 68.3625 23.888 67.2105 23.76L61.3065 23.04C59.0345 22.752 57.3865 21.888 56.3625 20.448C55.3385 18.976 54.9865 17.152 55.3065 14.976C56.1705 9.632 60.0265 6.96 66.8745 6.96H69.1305C71.2105 6.96 72.9865 7.296 74.4585 7.968C75.9625 8.64 77.0665 9.568 77.7705 10.752C78.5065 11.904 78.7465 13.232 78.4905 14.736H71.4345C71.5625 13.968 71.3385 13.376 70.7625 12.96C70.2185 12.544 69.3865 12.336 68.2665 12.336H66.0105C64.8905 12.336 64.0105 12.544 63.3705 12.96C62.7305 13.376 62.3465 13.952 62.2185 14.688C62.0905 15.424 62.2825 15.92 62.7945 16.176C63.3385 16.432 64.1065 16.624 65.0985 16.752L70.7625 17.472C73.3225 17.792 75.1305 18.704 76.1865 20.208C77.2745 21.712 77.6105 23.696 77.1945 26.16C76.3305 31.6 72.2345 34.32 64.9065 34.32H62.7945Z" fill="#76E1FE"/>
<path d="M93.4958 33.84C90.8078 33.84 88.8237 33.072 87.5437 31.536C86.2637 30 85.8317 27.888 86.2477 25.2L88.0238 13.92H80.9197L81.9277 7.44H89.0317L90.2318 0H97.4317L96.2318 7.44H106.552L105.544 13.92H95.2237L93.4477 24.96C93.3517 25.664 93.4477 26.24 93.7357 26.688C94.0237 27.136 94.5197 27.36 95.2237 27.36H103.144L102.136 33.84H93.4958Z" fill="#76E1FE"/>
</svg>
